<?xml version="1.0" encoding="utf-8"?>
<!-- Generator: Adobe Illustrator 24.2.0, SVG Export Plug-In . SVG Version: 6.00 Build 0)  -->
<svg version="1.1" id="Layer_1" xmlns="http://www.w3.org/2000/svg" xmlns:xlink="http://www.w3.org/1999/xlink" x="0px" y="0px"
	 viewBox="0 0 400 400" style="enable-background:new 0 0 400 400;" xml:space="preserve">
<style type="text/css">
	.st0{fill:#F9705D;}
	.st1{fill:#FFFFFF;}
	.st2{fill:#FFFFFF;stroke:#5D527F;stroke-width:4;stroke-miterlimit:10;}
</style>
<rect y="-1" class="st0" width="401" height="401"/>
<g>
	<path class="st1" d="M45.9,266.9c-2.2-2.8-4.2-4.8-7.5-4.8c-3.5,0-5.5,2.4-5.5,5c0,2.1,1.3,4.4,3.7,6.1c7.7,5.5,13.4,9.3,13.4,15.7
		c0,5.6-4.9,10.6-11.5,10.6c-5.7,0-9.4-3-12.4-8.4l3.5-2c2.5,4.3,5.4,6.5,8.6,6.5c4.3,0,7.6-3,7.6-6.7c0-4.3-4.2-6.8-13.5-14.1
		c-1.9-1.5-3.5-4.6-3.5-7.6c0-5.4,4.4-9.2,9.9-9.2c5,0,8.1,2.9,10.7,6.4L45.9,266.9z"/>
	<path class="st1" d="M62.6,260.3c0,1.7-1.5,3.1-3.3,3.1s-3.2-1.4-3.2-3.1c0-1.8,1.5-3.1,3.2-3.1C61.1,257.3,62.6,258.6,62.6,260.3z
		 M57.5,269.3h3.9v29.2h-3.9V269.3z"/>
	<path class="st1" d="M93.9,298.5H90v-15c0-2.3-0.2-4.1-0.3-5.4c-0.2-3.2-2.9-5.9-6.9-5.9c-2.7,0-5.4,1.3-7.1,3.4
		c-2.2,2.7-2.6,6.2-2.6,10.6v12.4h-3.9v-29.2h3.9v5c2.7-3.7,6.1-5.8,10.4-5.8c4.6,0,7.9,2.3,9.6,7c2.7-4.7,6.7-7,11.1-7
		c6.3,0,10.3,4.3,10.3,12.6v17.3h-3.9v-15.9c0-2.1-0.3-3.8-0.3-4.9c-0.2-2.6-2.7-5.4-6.9-5.4c-3.8,0-7.1,2.2-8.6,5.9
		c-1,2.4-1.1,4.9-1.1,7.6v12.7H93.9z"/>
	<path class="st1" d="M127,274.6c3-4.1,7.2-6.1,12.1-6.1c8.9,0,15.7,7,15.7,15.3s-6.7,15.4-15.6,15.4c-4.7,0-8.9-1.9-12.2-5.7v15.7
		h-3.9v-39.9h3.9V274.6z M126.7,284c0,7.3,5.8,11.8,12.1,11.8c6.7,0,12-5.5,12-11.9c0-6.3-5-11.8-12-11.8
		C131.9,272.2,126.7,277.3,126.7,284z"/>
	<path class="st1" d="M161.4,258h3.9v40.5h-3.9V258z"/>
	<path class="st1" d="M176,284.2c0.2,6.7,4.9,11.6,11.4,11.6c6.3,0,9.4-3.5,11.6-7l3.3,1.6c-3.1,5.8-7.8,8.7-14.5,8.7
		c-10.1,0-15.8-7.4-15.8-15.2c0-8,6.1-15.5,15.6-15.5c8.6,0,15.6,6,15.7,15.7L176,284.2L176,284.2z M199,280.9
		c-1.6-6-6.1-8.7-11.4-8.7c-5.4,0-9.5,2.8-11.3,8.7H199z"/>
	<path class="st1" d="M47,322.7l19.1,39.5h-4.4l-6.5-13H37.5l-6.4,13h-4.6L46,322.7H47z M46.5,331l-7.1,14.3h14.1L46.5,331z"/>
	<path class="st1" d="M71.4,332.9h3.9v33.6c0,4.7-1.7,7.1-5.2,7.1c-1.7,0-3.2-0.5-4.4-0.9v-3.4c0.7,0.3,1.6,0.7,2.8,0.7
		c1.8,0,2.9-1.2,2.9-3.5C71.4,366.5,71.4,332.9,71.4,332.9z M76.6,324c0,1.7-1.5,3.1-3.3,3.1s-3.2-1.4-3.2-3.1s1.4-3.1,3.2-3.1
		S76.6,322.3,76.6,324z"/>
	<path class="st1" d="M109.8,332.9h3.8v29.2h-3.8v-5c-3.3,3.8-7.5,5.7-12.2,5.7c-8.9,0-15.5-7.1-15.5-15.4s6.9-15.3,15.7-15.3
		c4.9,0,9.1,2,12.1,6.1L109.8,332.9L109.8,332.9z M86.1,347.6c0,6.3,5.1,11.9,11.9,11.9c6.2,0,12.1-4.5,12.1-11.8
		c0-6.8-5.3-11.9-12.1-11.9C91.1,335.8,86.1,341.3,86.1,347.6z"/>
	<path class="st1" d="M119,332.9h4.7l8.1,10.8l8.1-10.8h4.6L134,346.8l11.7,15.3H141l-9.3-12.3l-9.1,12.3h-4.7l11.5-15.3L119,332.9z
		"/>
	<path class="st1" d="M182.1,330.6c-2.2-2.8-4.2-4.8-7.5-4.8c-3.5,0-5.5,2.4-5.5,5c0,2.1,1.3,4.4,3.7,6.1
		c7.7,5.5,13.4,9.3,13.4,15.7c0,5.6-4.9,10.6-11.5,10.6c-5.7,0-9.4-3-12.4-8.4l3.5-2c2.5,4.3,5.4,6.5,8.6,6.5c4.3,0,7.6-3,7.6-6.7
		c0-4.3-4.2-6.8-13.5-14.1c-1.9-1.5-3.5-4.6-3.5-7.6c0-5.4,4.4-9.2,9.9-9.2c5,0,8.1,2.9,10.7,6.4L182.1,330.6z"/>
	<path class="st1" d="M196.7,347.8c0.2,6.7,4.9,11.6,11.4,11.6c6.3,0,9.4-3.5,11.6-7l3.3,1.6c-3.1,5.8-7.8,8.7-14.5,8.7
		c-10.1,0-15.8-7.4-15.8-15.2c0-8,6.1-15.5,15.6-15.5c8.6,0,15.6,6,15.7,15.7L196.7,347.8L196.7,347.8z M219.7,344.5
		c-1.6-6-6.1-8.7-11.4-8.7c-5.4,0-9.5,2.8-11.3,8.7H219.7z"/>
	<path class="st1" d="M257.7,332.9h3.8v29.2h-3.8v-5c-3.3,3.8-7.5,5.7-12.2,5.7c-8.9,0-15.5-7.1-15.5-15.4s6.9-15.3,15.7-15.3
		c4.9,0,9.1,2,12.1,6.1v-5.3H257.7z M233.9,347.6c0,6.3,5.1,11.9,11.9,11.9c6.2,0,12.1-4.5,12.1-11.8c0-6.8-5.3-11.9-12.1-11.9
		C238.9,335.8,233.9,341.3,233.9,347.6z"/>
	<path class="st1" d="M272.9,337.2c2.3-3.2,4.7-5,7.8-5c1.8,0,2.7,0.5,3.5,1l-2.1,3.2c-0.5-0.2-1.2-0.5-2.1-0.5
		c-2.9,0-5.4,2.4-6.6,6.4c-0.5,1.9-0.6,4.9-0.6,8.9v11.1h-4.1v-29.2h4.1v4.1H272.9z"/>
	<path class="st1" d="M316.6,356.3c-3,4.3-8.1,6.6-14.2,6.6c-10,0-16.7-6.9-16.7-15.1c0-8.6,7-15.6,17-15.6c5.8,0,11.1,2.3,13.9,6.8
		l-3.1,1.9c-2.7-3.4-6.4-5.1-11-5.1c-7.7,0-12.8,5.4-12.8,11.7c0,6.4,5,11.9,12.9,11.9c4.4,0,8.1-1.7,10.9-5.1L316.6,356.3z"/>
	<path class="st1" d="M324.1,321.7h3.9v16.5c3.1-4,6.9-6,11.4-6c6.6,0,11.2,4.5,11.2,13.2v16.8h-3.9v-15.9c0-6.9-2.2-10.7-8.1-10.7
		c-3.3,0-5.9,1.4-8,4c-2.2,2.8-2.6,5.7-2.6,10.3v12.3h-3.9V321.7z"/>
</g>
<path class="st2" d="M89.7,231.6L89.7,231.6c6.8,2.6,14.3-0.8,16.9-7.6l19.7-52.1c2.6-6.8-0.8-14.3-7.6-16.9l0,0
	c-6.8-2.6-14.3,0.8-16.9,7.6l-19.7,52.1C79.5,221.5,82.9,229.1,89.7,231.6z"/>
<path class="st2" d="M59.5,231.6L59.5,231.6c-6.8,2.6-14.3-0.8-16.9-7.6l-19.7-52.1c-2.6-6.8,0.8-14.3,7.6-16.9l0,0
	c6.8-2.6,14.3,0.8,16.9,7.6l19.7,52.1C69.7,221.5,66.2,229.1,59.5,231.6z"/>
<path class="st2" d="M50.2,231.6L50.2,231.6c6.8,2.6,14.3-0.8,16.9-7.6l19.7-52.1c2.6-6.8-0.8-14.3-7.6-16.9l0,0
	c-6.8-2.6-14.3,0.8-16.9,7.6l-19.7,52.1C40,221.5,43.4,229.1,50.2,231.6z"/>
<path class="st2" d="M98.9,231.6L98.9,231.6c-6.8,2.6-14.3-0.8-16.9-7.6l-19.7-52.1c-2.6-6.8,0.8-14.3,7.6-16.9l0,0
	c6.8-2.6,14.3,0.8,16.9,7.6l19.7,52.1C109.1,221.5,105.7,229.1,98.9,231.6z"/>
<g>
	<g>
		<path class="st2" d="M131.8,193.3L131.8,193.3c2.9,1,6.1-0.5,7.1-3.3l10-27.6c1-2.9-0.5-6.1-3.3-7.1h0c-2.9-1-6.1,0.5-7.1,3.3
			l-10,27.6C127.4,189.1,128.9,192.3,131.8,193.3z"/>
		<path class="st2" d="M155.7,203.3L155.7,203.3c3.1,0,5.5-2.5,5.5-5.5v-23.6c0-3.1-2.5-5.5-5.5-5.5h0c-3.1,0-5.5,2.5-5.5,5.5v23.6
			C150.1,200.8,152.6,203.3,155.7,203.3z"/>
		<path class="st2" d="M165.3,188.1L165.3,188.1c0-3.1-2.5-5.5-5.5-5.5h-26.1c-3.1,0-5.5,2.5-5.5,5.5l0,0c0,3.1,2.5,5.5,5.5,5.5
			h26.1C162.8,193.7,165.3,191.2,165.3,188.1z"/>
	</g>
</g>
</svg>
